<svg xmlns="http://www.w3.org/2000/svg" viewBox="0 0 206.33 43.94"><defs><style>.cls-1{fill:rgb(239, 71, 111);fill-rule:evenodd;}</style></defs><title>Asset 1</title><g id="Layer_2" data-name="Layer 2"><g id="Layer_1-2" data-name="Layer 1"><path class="cls-1" d="M73.31,21.83h0V18.36h0a5.07,5.07,0,0,0-1.52-3.51,5,5,0,0,0-3.53-1.45H57.63V32.75H61V16.83h7.13a1.71,1.71,0,0,1,1.21.5h0a1.72,1.72,0,0,1,.49,1.21v3.11a1.74,1.74,0,0,1-.49,1.21h0a1.74,1.74,0,0,1-1.21.49h-4l-1,3.44h3.26l.06.12,3.37,5.84h4l-3.53-6.08-.13-.22.23-.11a5,5,0,0,0,2.15-1.84,4.93,4.93,0,0,0,.83-2.67ZM92,16.1H84.18a3.62,3.62,0,0,0-2.58,1.07,3.66,3.66,0,0,0-1.07,2.6v9.34a3.65,3.65,0,0,0,3.65,3.64H92a3.72,3.72,0,0,0,2.6-1.06,3.63,3.63,0,0,0,1.07-2.58V19.77a3.66,3.66,0,0,0-1.07-2.6A3.62,3.62,0,0,0,92,16.1Zm.23,12.21a1,1,0,0,1-.29.73.93.93,0,0,1-.71.3H85a1,1,0,0,1-.73-.3h0a1.05,1.05,0,0,1-.3-.73V20.53a1,1,0,0,1,.3-.71,1,1,0,0,1,.73-.28h6.22a1,1,0,0,1,.71.28h0a1,1,0,0,1,.29.71v7.78Zm25.58-1.93a3.66,3.66,0,0,0-1.07-2.6h0a3.65,3.65,0,0,0-2.59-1.08h-7a1,1,0,0,1-.72-.29,1,1,0,0,1-.31-.7V20.53a1,1,0,0,1,.3-.71,1.05,1.05,0,0,1,.73-.28h8.37l1-3.44h-10.2a3.64,3.64,0,0,0-3.64,3.67v2.7a3.66,3.66,0,0,0,1.07,2.6,3.59,3.59,0,0,0,2.57,1.07h7a1,1,0,0,1,.7.29,1,1,0,0,1,.29.71v1.17a1,1,0,0,1-.28.73,1,1,0,0,1-.71.3h-9.55l-1,3.41H114.1a3.7,3.7,0,0,0,2.6-1.06,3.63,3.63,0,0,0,1.07-2.58V26.38Zm18.32-3.68h-4.46l-1,3.44h9.18V19.77a3.65,3.65,0,0,0-3.68-3.67h-7.78a3.63,3.63,0,0,0-2.58,1.07,3.7,3.7,0,0,0-1.06,2.6v9.34a3.65,3.65,0,0,0,3.64,3.64h9.58l1-3.41h-9.79a1,1,0,0,1-.73-.3,1,1,0,0,1-.3-.73V20.53a1,1,0,0,1,.3-.71,1,1,0,0,1,.73-.28h6.22a1,1,0,0,1,.71.28h0a1,1,0,0,1,.29.71V22.7Zm25.82-2.93a3.66,3.66,0,0,0-1.07-2.6,3.62,3.62,0,0,0-2.6-1.07H153l-1,3.44h5.5a1,1,0,0,1,.72.28h0a1,1,0,0,1,.28.71v7.78a1,1,0,0,1-.29.73.93.93,0,0,1-.71.3h-7.25V11.19h-3.41V32.75h3.41V30.49l.4.39,1.9,1.87h5.72a3.7,3.7,0,0,0,2.6-1.06,3.63,3.63,0,0,0,1.07-2.58V19.77Zm18.47-3.67H172.6A3.64,3.64,0,0,0,169,19.77v9.34A3.6,3.6,0,0,0,170,31.68h0a3.63,3.63,0,0,0,2.58,1.07h7.78a3.7,3.7,0,0,0,2.6-1.06,3.63,3.63,0,0,0,1.07-2.58V19.77a3.66,3.66,0,0,0-1.07-2.6h0a3.66,3.66,0,0,0-2.6-1.07Zm.23,12.21a1,1,0,0,1-.28.73,1,1,0,0,1-.71.3h-6.23a1,1,0,0,1-1-1V20.53a1,1,0,0,1,.3-.71,1,1,0,0,1,.72-.28h6.23a1,1,0,0,1,.71.28h0a1,1,0,0,1,.28.71v7.78Zm25.72,4.44-7.2-10.14-.26-.37H202l4.37-6.14h-4.22l-3.63,5.1-.19.26-.18-.26-3.63-5.1h-4.19l5.82,8.2.09.14-.09.13-5.82,8.18h4.19l3.63-5.1.18-.27.19.27,3.63,5.1Z"/><polygon class="cls-1" points="0 28.87 0 14.72 0.01 14.72 0.01 14.72 14.15 14.72 10.74 18.13 3.42 18.13 3.42 18.13 3.41 18.14 3.41 25.46 0 28.87 0 28.87"/><polygon class="cls-1" points="32.63 1.56 42.63 11.56 42.63 11.56 42.63 11.57 32.63 21.57 32.63 16.75 37.81 11.57 37.81 11.56 37.81 11.56 32.63 6.38 32.63 1.56 32.63 1.56"/><polygon class="cls-1" points="11.31 22.37 1.31 32.38 1.31 32.38 1.31 32.38 11.31 42.39 11.31 37.56 6.13 32.38 6.14 32.38 6.13 32.38 11.31 27.2 11.31 22.37 11.31 22.37"/><polygon class="cls-1" points="15.07 0 29.22 0 29.22 0.01 29.23 0.01 29.23 14.15 25.81 10.74 25.81 3.42 25.81 3.42 25.81 3.41 18.49 3.41 15.07 0 15.07 0"/><polygon class="cls-1" points="14.72 29.79 14.72 43.94 14.72 43.94 14.72 43.94 28.87 43.94 25.46 40.53 18.14 40.53 18.14 40.53 18.13 40.53 18.13 33.2 14.72 29.79 14.72 29.79"/><polygon class="cls-1" points="1.56 11.31 11.56 1.31 11.56 1.31 11.57 1.31 21.57 11.31 16.75 11.31 11.57 6.13 11.56 6.14 11.56 6.13 6.38 11.31 1.56 11.31 1.56 11.31"/><polygon class="cls-1" points="22.37 32.63 32.38 42.63 32.38 42.63 32.38 42.63 42.39 32.63 37.56 32.63 32.38 37.81 32.38 37.81 32.38 37.81 27.2 32.63 22.37 32.63 22.37 32.63"/><path class="cls-1" d="M22,27.15,27.15,22h0L22,16.79V12L12,22h0L22,32V27.15ZM22,12,32,22h0L22,32V27.15L16.79,22h0L22,16.79V12Z"/><polygon class="cls-1" points="29.79 29.23 43.94 29.23 43.94 29.22 43.94 29.22 43.94 15.07 40.53 18.49 40.53 25.81 40.53 25.81 40.53 25.81 33.2 25.81 29.79 29.23 29.79 29.23"/></g></g></svg>